<?xml version="1.0" encoding="UTF-8" standalone="no"?>
<!DOCTYPE svg PUBLIC "-//W3C//DTD SVG 1.1//EN"
 "http://www.w3.org/Graphics/SVG/1.1/DTD/svg11.dtd">
<!-- Generated by graphviz version 7.0.6 (20230106.0513)
 -->
<!-- Title: matrix Pages: 1 -->
<svg width="66pt" height="118pt"
 viewBox="0.00 0.00 66.00 118.00" xmlns="http://www.w3.org/2000/svg" xmlns:xlink="http://www.w3.org/1999/xlink">
<g id="graph0" class="graph" transform="scale(1 1) rotate(0) translate(4 114)">
<title>matrix</title>
<polygon fill="white" stroke="none" points="-4,4 -4,-114 62,-114 62,4 -4,4"/>
<!-- t1 -->
<g id="node1" class="node">
<title>t1</title>
<polygon fill="lightpink" stroke="none" points="8,-4 8,-106 50,-106 50,-4 8,-4"/>
<polygon fill="none" stroke="black" points="9,-85 9,-105 29,-105 29,-85 9,-85"/>
<polygon fill="none" stroke="black" points="29,-85 29,-105 49,-105 49,-85 29,-85"/>
<polygon fill="none" stroke="black" points="9,-65 9,-85 29,-85 29,-65 9,-65"/>
<polygon fill="none" stroke="black" points="29,-65 29,-85 49,-85 49,-65 29,-65"/>
<polygon fill="none" stroke="black" points="9,-45 9,-65 29,-65 29,-45 9,-45"/>
<polygon fill="none" stroke="black" points="29,-45 29,-65 49,-65 49,-45 29,-45"/>
<polygon fill="none" stroke="black" points="9,-25 9,-45 29,-45 29,-25 9,-25"/>
<polygon fill="none" stroke="black" points="29,-25 29,-45 49,-45 49,-25 29,-25"/>
<polygon fill="none" stroke="black" points="9,-5 9,-25 29,-25 29,-5 9,-5"/>
<polygon fill="none" stroke="black" points="29,-5 29,-25 49,-25 49,-5 29,-5"/>
<polygon fill="none" stroke="black" points="8,-4 8,-106 50,-106 50,-4 8,-4"/>
</g>
</g>
</svg>
